<!DOCTYPE svg PUBLIC "-//W3C//DTD SVG 20010904//EN" "http://www.w3.org/TR/2001/REC-SVG-20010904/DTD/svg10.dtd">
<svg version="1.0" xmlns="http://www.w3.org/2000/svg" width="500px" height="500px" viewBox="0 0 5000 5000" preserveAspectRatio="xMidYMid meet">
<g id="layer101" fill="#F8F8FB" stroke="none">
 <path d="M0 2500 l0 -2500 2500 0 2500 0 0 2500 0 2500 -2500 0 -2500 0 0 -2500z"/>
 </g>
<g id="layer102" fill="#F8F8FB" stroke="none">
 <path d="M0 2500 l0 -2500 2500 0 2500 0 0 2500 0 2500 -2500 0 -2500 0 0 -2500z m1480 750 l0 -510 415 0 415 0 0 -245 0 -245 -415 0 -415 0 0 -250 0 -250 455 0 455 0 0 -250 0 -250 -745 0 -745 0 0 1255 0 1255 290 0 290 0 0 -510z"/>
 </g>
<g id="layer103" fill="#1e90ff" stroke="none">
 <path d="M0 2500 l0 -2500 2500 0 2500 0 0 2500 0 2500 -2500 0 -2500 0 0 -2500z m1480 750 l0 -510 415 0 415 0 0 -245 0 -245 -415 0 -415 0 0 -250 0 -250 455 0 455 0 0 -250 0 -250 -745 0 -745 0 0 1255 0 1255 290 0 290 0 0 -510z m2618 -747 l-3 -1258 -737 -3 -738 -2 0 250 0 250 450 0 450 0 0 250 0 250 -415 0 -415 0 0 250 0 250 415 0 415 0 0 510 0 510 290 0 290 0 -2 -1257z"/>
 </g>

</svg>