<!DOCTYPE svg PUBLIC "-//W3C//DTD SVG 20010904//EN" "http://www.w3.org/TR/2001/REC-SVG-20010904/DTD/svg10.dtd">
<svg version="1.0" xmlns="http://www.w3.org/2000/svg" width="500px" height="500px" viewBox="0 0 5000 5000" preserveAspectRatio="xMidYMid meet">
<g id="layer101" fill="#F8F8FB" stroke="none">
 <path d="M0 2500 l0 -2500 2500 0 2500 0 0 2500 0 2500 -2500 0 -2500 0 0 -2500z"/>
 </g>
<g id="layer102" fill="#F8F8FB" stroke="none">
 <path d="M0 2500 l0 -2500 2500 0 2500 0 0 2500 0 2500 -2500 0 -2500 0 0 -2500z m2690 1767 c279 -48 547 -158 770 -314 122 -87 354 -318 442 -443 214 -301 338 -693 338 -1065 0 -371 -125 -766 -337 -1065 -89 -125 -321 -357 -443 -443 -416 -292 -944 -401 -1445 -297 -228 47 -494 163 -685 297 -124 88 -355 319 -443 443 -135 191 -250 457 -297 685 -104 502 5 1032 297 1445 88 124 319 355 443 442 245 173 552 290 860 328 102 12 396 5 500 -13z"/>
 <path d="M2200 4169 c-506 -57 -980 -349 -1256 -774 -566 -872 -252 -2035 677 -2500 855 -429 1894 -82 2324 776 430 857 82 1896 -781 2327 -293 147 -638 208 -964 171z"/>
 </g>
<g id="layer103" fill="#F8F8FB" stroke="none">
 <path d="M0 2500 l0 -2500 2500 0 2500 0 0 2500 0 2500 -2500 0 -2500 0 0 -2500z m2690 1767 c279 -48 547 -158 770 -314 122 -87 354 -318 442 -443 214 -301 338 -693 338 -1065 0 -371 -125 -766 -337 -1065 -89 -125 -321 -357 -443 -443 -416 -292 -944 -401 -1445 -297 -228 47 -494 163 -685 297 -124 88 -355 319 -443 443 -135 191 -250 457 -297 685 -104 502 5 1032 297 1445 88 124 319 355 443 442 245 173 552 290 860 328 102 12 396 5 500 -13z"/>
 <path d="M2200 4169 c-506 -57 -980 -349 -1256 -774 -566 -872 -252 -2035 677 -2500 855 -429 1894 -82 2324 776 430 857 82 1896 -781 2327 -293 147 -638 208 -964 171z m-773 -2041 c-1 -216 -2 -42 -2 387 0 429 1 606 2 393 2 -212 2 -563 0 -780z m340 710 c-1 -84 -3 -16 -3 152 0 168 2 236 3 153 2 -84 2 -222 0 -305z m0 -730 c-1 -46 -3 -11 -3 77 0 88 2 125 3 83 2 -42 2 -114 0 -160z m416 -95 c-72 -2 -194 -2 -270 0 -76 1 -16 3 132 3 149 0 211 -2 138 -3z m144 -230 c-1 -43 -3 -10 -3 72 0 83 2 118 3 78 2 -40 2 -107 0 -150z"/>
 </g>
<g id="layer104" fill="#F8F8FB" stroke="none">
 <path d="M0 2500 l0 -2500 2500 0 2500 0 0 2500 0 2500 -2500 0 -2500 0 0 -2500z m2690 1767 c279 -48 547 -158 770 -314 122 -87 354 -318 442 -443 214 -301 338 -693 338 -1065 0 -371 -125 -766 -337 -1065 -89 -125 -321 -357 -443 -443 -416 -292 -944 -401 -1445 -297 -228 47 -494 163 -685 297 -124 88 -355 319 -443 443 -135 191 -250 457 -297 685 -104 502 5 1032 297 1445 88 124 319 355 443 442 245 173 552 290 860 328 102 12 396 5 500 -13z"/>
 <path d="M2200 4169 c-506 -57 -980 -349 -1256 -774 -566 -872 -252 -2035 677 -2500 855 -429 1894 -82 2324 776 430 857 82 1896 -781 2327 -293 147 -638 208 -964 171z m-430 -1189 l0 -320 260 0 260 0 0 -160 0 -160 -260 0 -261 0 3 -157 3 -158 278 -3 277 -2 0 -155 0 -155 -455 0 -455 0 0 795 0 795 175 0 175 0 0 -320z"/>
 </g>
<g id="layer105" fill="#1e90ff" stroke="none">
 <path d="M0 2500 l0 -2500 2500 0 2500 0 0 2500 0 2500 -2500 0 -2500 0 0 -2500z m2690 1767 c279 -48 547 -158 770 -314 122 -87 354 -318 442 -443 214 -301 338 -693 338 -1065 0 -371 -125 -766 -337 -1065 -89 -125 -321 -357 -443 -443 -416 -292 -944 -401 -1445 -297 -228 47 -494 163 -685 297 -124 88 -355 319 -443 443 -135 191 -250 457 -297 685 -104 502 5 1032 297 1445 88 124 319 355 443 442 245 173 552 290 860 328 102 12 396 5 500 -13z"/>
 <path d="M2200 4169 c-506 -57 -980 -349 -1256 -774 -566 -872 -252 -2035 677 -2500 855 -429 1894 -82 2324 776 430 857 82 1896 -781 2327 -293 147 -638 208 -964 171z m-420 -1189 l0 -320 260 0 261 0 -3 -157 -3 -158 -257 -3 -258 -2 0 -155 0 -155 280 0 280 0 -2 -162 -3 -163 -462 -3 -463 -2 0 800 0 800 185 0 185 0 0 -320z m1660 -480 l0 -800 -470 0 -470 0 0 160 0 160 285 0 285 0 0 155 0 155 -265 0 -265 0 0 160 0 160 265 0 265 0 0 325 0 325 185 0 185 0 0 -800z"/>
 </g>

</svg>