<!DOCTYPE svg PUBLIC "-//W3C//DTD SVG 20010904//EN" "http://www.w3.org/TR/2001/REC-SVG-20010904/DTD/svg10.dtd">
<svg version="1.0" xmlns="http://www.w3.org/2000/svg" width="500px" height="500px" viewBox="0 0 5000 5000" preserveAspectRatio="xMidYMid meet">
<g id="layer101" fill="#666666" stroke="none">
 <path d="M2230 4870 c-276 -34 -539 -114 -792 -242 -653 -330 -1117 -934 -1263 -1643 -60 -294 -60 -666 0 -960 207 -1010 1058 -1780 2083 -1886 143 -15 483 -6 616 15 979 157 1763 906 1961 1871 60 294 60 666 0 960 -125 607 -497 1157 -1014 1500 -292 193 -604 315 -947 371 -116 19 -527 28 -644 14z"/>
 </g>
<g id="layer102" fill="#1d90fe" stroke="none">
 <path d="M2230 4870 c-276 -34 -539 -114 -792 -242 -653 -330 -1117 -934 -1263 -1643 -60 -294 -60 -666 0 -960 207 -1010 1058 -1780 2083 -1886 143 -15 483 -6 616 15 979 157 1763 906 1961 1871 60 294 60 666 0 960 -125 607 -497 1157 -1014 1500 -292 193 -604 315 -947 371 -116 19 -527 28 -644 14z m-750 -1620 l0 -510 415 0 415 0 0 -245 0 -245 -415 0 -415 0 0 -250 0 -250 455 0 455 0 0 -250 0 -250 -745 0 -745 0 0 1255 0 1255 290 0 290 0 0 -510z"/>
 </g>
<g id="layer103" fill="#a8a8a8" stroke="none">
 <path d="M2213 4863 c9 -2 25 -2 35 0 9 3 1 5 -18 5 -19 0 -27 -2 -17 -5z"/>
 <path d="M2340 4734 c-169 -20 -292 -40 -386 -65 -876 -226 -1523 -946 -1660 -1844 -25 -165 -25 -474 0 -640 71 -471 276 -887 606 -1229 344 -356 778 -583 1260 -657 463 -72 909 -3 1335 206 653 320 1113 953 1221 1680 25 167 25 478 0 640 -72 475 -277 889 -611 1234 -347 358 -783 582 -1280 657 -97 14 -414 26 -485 18z m-860 -1484 l0 -510 415 0 415 0 0 -245 0 -245 -415 0 -415 0 0 -250 0 -250 455 0 455 0 0 -250 0 -250 -745 0 -745 0 0 1255 0 1255 290 0 290 0 0 -510z"/>
 <path d="M132 2650 c0 -19 2 -27 5 -17 2 9 2 25 0 35 -3 9 -5 1 -5 -18z"/>
 <path d="M4872 2650 c0 -19 2 -27 5 -17 2 9 2 25 0 35 -3 9 -5 1 -5 -18z"/>
 <path d="M132 2360 c0 -19 2 -27 5 -17 2 9 2 25 0 35 -3 9 -5 1 -5 -18z"/>
 <path d="M4872 2360 c0 -19 2 -27 5 -17 2 9 2 25 0 35 -3 9 -5 1 -5 -18z"/>
 <path d="M2213 143 c9 -2 25 -2 35 0 9 3 1 5 -18 5 -19 0 -27 -2 -17 -5z"/>
 </g>
<g id="layer104" fill="#7fc1fe" stroke="none">
 <path d="M2213 4863 c9 -2 25 -2 35 0 9 3 1 5 -18 5 -19 0 -27 -2 -17 -5z"/>
 <path d="M2340 4734 c-169 -20 -292 -40 -386 -65 -876 -226 -1523 -946 -1660 -1844 -25 -165 -25 -474 0 -640 71 -471 276 -887 606 -1229 344 -356 778 -583 1260 -657 463 -72 909 -3 1335 206 653 320 1113 953 1221 1680 25 167 25 478 0 640 -72 475 -277 889 -611 1234 -347 358 -783 582 -1280 657 -97 14 -414 26 -485 18z m-860 -1484 l0 -510 415 0 415 0 0 -245 0 -245 -415 0 -415 0 0 -250 0 -250 455 0 455 0 0 -250 0 -250 -745 0 -745 0 0 1255 0 1255 290 0 290 0 0 -510z m2618 -747 l-3 -1258 -737 -3 -738 -2 0 250 0 250 450 0 450 0 0 250 0 250 -415 0 -415 0 0 250 0 250 415 0 415 0 0 510 0 510 290 0 290 0 -2 -1257z"/>
 <path d="M132 2650 c0 -19 2 -27 5 -17 2 9 2 25 0 35 -3 9 -5 1 -5 -18z"/>
 <path d="M4872 2650 c0 -19 2 -27 5 -17 2 9 2 25 0 35 -3 9 -5 1 -5 -18z"/>
 <path d="M132 2360 c0 -19 2 -27 5 -17 2 9 2 25 0 35 -3 9 -5 1 -5 -18z"/>
 <path d="M4872 2360 c0 -19 2 -27 5 -17 2 9 2 25 0 35 -3 9 -5 1 -5 -18z"/>
 <path d="M2213 143 c9 -2 25 -2 35 0 9 3 1 5 -18 5 -19 0 -27 -2 -17 -5z"/>
 </g>
<g id="layer105" fill="#d9d9d9" stroke="none">
 <path d="M2306 4729 c-253 -21 -570 -110 -797 -224 -345 -174 -659 -454 -872 -777 -470 -714 -486 -1651 -39 -2383 252 -414 645 -744 1097 -921 513 -200 1107 -200 1620 0 511 200 942 593 1190 1085 170 339 255 764 227 1143 -40 541 -249 1015 -617 1396 -476 495 -1121 738 -1809 681z m-826 -1479 l0 -510 415 0 415 0 0 -245 0 -245 -415 0 -415 0 0 -250 0 -250 455 0 455 0 0 -250 0 -250 -745 0 -745 0 0 1255 0 1255 290 0 290 0 0 -510z m2618 -747 l-3 -1258 -737 -3 -738 -2 0 250 0 250 450 0 450 0 0 250 0 250 -415 0 -415 0 0 250 0 250 415 0 415 0 0 510 0 510 290 0 290 0 -2 -1257z"/>
 </g>

</svg>